avconv version 9.18-6:9.18-0ubuntu0.14.04.1+fdkaac, Copyright (c) 2000-2014 the Libav developers
  built on Apr 10 2015 23:18:58 with gcc 4.8 (Ubuntu 4.8.2-19ubuntu1)
Input #0, image2, from 'imagenes/Cubo%02d.png':
  Duration: 00:00:04.00, start: 0.000000, bitrate: N/A
    Stream #0.0: Video: png, rgb24, 320x240, 25 fps, 25 tbr, 25 tbn
[libx264 @ 0x12d54e0] using cpu capabilities: MMX2 SSE2Fast SSSE3 SSE4.2 AVX
[libx264 @ 0x12d54e0] profile High, level 1.3
Output #0, avi, to 'result/cub_umh_139.avi':
  Metadata:
    ISFT            : Lavf54.20.4
    Stream #0.0: Video: libx264, yuv420p, 320x240, q=-1--1, 25 tbn, 25 tbc
Stream mapping:
  Stream #0:0 -> #0:0 (png -> libx264)
Press ctrl-c to stop encoding
frame=  100 fps=  0 q=32766.0 Lsize=     432kB time=3.92 bitrate= 903.1kbits/s    
video:186kB audio:0kB global headers:0kB muxing overhead 132.089494%
[libx264 @ 0x12d54e0] frame I:16    Avg QP:25.89  size:  6550
[libx264 @ 0x12d54e0] frame P:84    Avg QP:27.94  size:  3924
[libx264 @ 0x12d54e0] mb I  I16..4: 10.3% 80.7%  8.9%
[libx264 @ 0x12d54e0] mb P  I16..4:  4.4% 23.1%  4.3%  P16..4: 23.8% 26.9% 13.2%  0.0%  0.0%    skip: 4.3%
[libx264 @ 0x12d54e0] 8x8 transform intra:75.7% inter:74.4%
[libx264 @ 0x12d54e0] coded y,uvDC,uvAC intra: 71.8% 93.5% 76.3% inter: 52.3% 63.5% 13.5%
[libx264 @ 0x12d54e0] i16 v,h,dc,p: 11% 41% 12% 36%
[libx264 @ 0x12d54e0] i8 v,h,dc,ddl,ddr,vr,hd,vl,hu: 20% 15% 21%  6%  6%  9%  5% 12%  7%
[libx264 @ 0x12d54e0] i4 v,h,dc,ddl,ddr,vr,hd,vl,hu: 22% 11% 16%  9%  8% 10%  6% 13%  5%
[libx264 @ 0x12d54e0] i8c dc,h,v,p: 41% 20% 23% 17%
[libx264 @ 0x12d54e0] Weighted P-Frames: Y:17.9% UV:14.3%
[libx264 @ 0x12d54e0] kb/s:868.79
bench: utime=2.274s maxrss=46700kB
